<?xml version="1.0" encoding="UTF-8" standalone="no"?>
<!DOCTYPE svg PUBLIC "-//W3C//DTD SVG 1.0//EN" "http://www.w3.org/TR/2001/PR-SVG-20010719/DTD/svg10.dtd">
<svg width="61cm" height="30cm" viewBox="-119 -101 1217 582" xmlns="http://www.w3.org/2000/svg" xmlns:xlink="http://www.w3.org/1999/xlink">
  <g>
    <rect style="fill: #ffffff" x="313.9" y="-40.25" width="248.7" height="28"/>
    <rect style="fill: none; fill-opacity:0; stroke-width: 2; stroke: #000000" x="313.9" y="-40.25" width="248.7" height="28"/>
    <text font-size="16" style="fill: #000000;text-anchor:middle;font-family:sans-serif;font-style:normal;font-weight:700" x="438.25" y="-21.25">Store</text>
    <rect style="fill: #ffffff" x="313.9" y="-12.25" width="248.7" height="68"/>
    <rect style="fill: none; fill-opacity:0; stroke-width: 2; stroke: #000000" x="313.9" y="-12.25" width="248.7" height="68"/>
    <text font-size="12.8" style="fill: #000000;text-anchor:start;font-family:monospace;font-style:normal;font-weight:normal" x="316.9" y="1.75">+funcs: Vector&lt;FuncInst&gt;</text>
    <text font-size="12.8" style="fill: #000000;text-anchor:start;font-family:monospace;font-style:normal;font-weight:normal" x="316.9" y="17.75">+tables: Vector&lt;TableInst&gt;</text>
    <text font-size="12.8" style="fill: #000000;text-anchor:start;font-family:monospace;font-style:normal;font-weight:normal" x="316.9" y="33.75">+mems: Vector&lt;MemInst&gt;</text>
    <text font-size="12.8" style="fill: #000000;text-anchor:start;font-family:monospace;font-style:normal;font-weight:normal" x="316.9" y="49.75">+globals: Vector&lt;GlobalInst&gt;</text>
    <rect style="fill: #ffffff" x="313.9" y="55.75" width="248.7" height="36"/>
    <rect style="fill: none; fill-opacity:0; stroke-width: 2; stroke: #000000" x="313.9" y="55.75" width="248.7" height="36"/>
    <text font-size="12.8" style="fill: #000000;text-anchor:start;font-family:monospace;font-style:normal;font-weight:normal" x="316.9" y="69.75">+new_Store(): Store*</text>
    <text font-size="12.8" style="fill: #000000;text-anchor:start;font-family:monospace;font-style:normal;font-weight:normal" x="316.9" y="85.75">+free_Store(store:Store*): void</text>
  </g>
  <g>
    <rect style="fill: #ffffff" x="317.75" y="187.75" width="241" height="28"/>
    <rect style="fill: none; fill-opacity:0; stroke-width: 2; stroke: #000000" x="317.75" y="187.75" width="241" height="28"/>
    <text font-size="16" style="fill: #000000;text-anchor:middle;font-family:sans-serif;font-style:normal;font-weight:700" x="438.25" y="206.75">ModuleInst</text>
    <rect style="fill: #ffffff" x="317.75" y="215.75" width="241" height="100"/>
    <rect style="fill: none; fill-opacity:0; stroke-width: 2; stroke: #000000" x="317.75" y="215.75" width="241" height="100"/>
    <text font-size="12.8" style="fill: #000000;text-anchor:start;font-family:monospace;font-style:normal;font-weight:normal" x="320.75" y="229.75">+types: Vector&lt;FuncType&gt;</text>
    <text font-size="12.8" style="fill: #000000;text-anchor:start;font-family:monospace;font-style:normal;font-weight:normal" x="320.75" y="245.75">+funcaddrs: Vector&lt;uint32_t&gt;</text>
    <text font-size="12.8" style="fill: #000000;text-anchor:start;font-family:monospace;font-style:normal;font-weight:normal" x="320.75" y="261.75">+tableaddrs: Vector&lt;uint32_t&gt;</text>
    <text font-size="12.8" style="fill: #000000;text-anchor:start;font-family:monospace;font-style:normal;font-weight:normal" x="320.75" y="277.75">+memaddrs: Vector&lt;uint32_t&gt;</text>
    <text font-size="12.8" style="fill: #000000;text-anchor:start;font-family:monospace;font-style:normal;font-weight:normal" x="320.75" y="293.75">+globaladdrs: Vector&lt;uint32_t&gt;</text>
    <text font-size="12.8" style="fill: #000000;text-anchor:start;font-family:monospace;font-style:normal;font-weight:normal" x="320.75" y="309.75">+exports: Vector&lt;ExportInst*&gt;</text>
  </g>
  <g>
    <rect style="fill: #ffffff" x="612.4" y="-99.35" width="248.7" height="28"/>
    <rect style="fill: none; fill-opacity:0; stroke-width: 2; stroke: #000000" x="612.4" y="-99.35" width="248.7" height="28"/>
    <text font-size="16" style="fill: #000000;text-anchor:middle;font-family:sans-serif;font-style:normal;font-weight:700" x="736.75" y="-80.35">FuncInst</text>
    <rect style="fill: #ffffff" x="612.4" y="-71.35" width="248.7" height="84"/>
    <rect style="fill: none; fill-opacity:0; stroke-width: 2; stroke: #000000" x="612.4" y="-71.35" width="248.7" height="84"/>
    <text font-size="12.8" style="fill: #000000;text-anchor:start;font-family:monospace;font-style:normal;font-weight:normal" x="615.4" y="-57.35">+type: FuncType</text>
    <text font-size="12.8" style="fill: #000000;text-anchor:start;font-family:monospace;font-style:normal;font-weight:normal" x="615.4" y="-41.35">+locals: Vector&lt;ValueType&gt;</text>
    <text font-size="12.8" style="fill: #000000;text-anchor:start;font-family:monospace;font-style:normal;font-weight:normal" x="615.4" y="-25.35">+module: ModuleInst*</text>
    <text font-size="12.8" style="fill: #000000;text-anchor:start;font-family:monospace;font-style:normal;font-weight:normal" x="615.4" y="-9.35">+code: Vector&lt;InstrInst&gt;</text>
    <text font-size="12.8" style="fill: #000000;text-anchor:start;font-family:monospace;font-style:normal;font-weight:normal" x="615.4" y="6.65">+hostcode: int(*)(void*, void*)</text>
    <rect style="fill: #ffffff" x="612.4" y="12.65" width="248.7" height="8"/>
    <rect style="fill: none; fill-opacity:0; stroke-width: 2; stroke: #000000" x="612.4" y="12.65" width="248.7" height="8"/>
  </g>
  <g>
    <rect style="fill: #ffffff" x="612.4" y="34.4" width="187.1" height="28"/>
    <rect style="fill: none; fill-opacity:0; stroke-width: 2; stroke: #000000" x="612.4" y="34.4" width="187.1" height="28"/>
    <text font-size="16" style="fill: #000000;text-anchor:middle;font-family:sans-serif;font-style:normal;font-weight:700" x="705.95" y="53.4">TableInst</text>
    <rect style="fill: #ffffff" x="612.4" y="62.4" width="187.1" height="36"/>
    <rect style="fill: none; fill-opacity:0; stroke-width: 2; stroke: #000000" x="612.4" y="62.4" width="187.1" height="36"/>
    <text font-size="12.8" style="fill: #000000;text-anchor:start;font-family:monospace;font-style:normal;font-weight:normal" x="615.4" y="76.4">+elem: Vector&lt;uint32_t&gt;</text>
    <text font-size="12.8" style="fill: #000000;text-anchor:start;font-family:monospace;font-style:normal;font-weight:normal" x="615.4" y="92.4">+max: uint32_t</text>
    <rect style="fill: #ffffff" x="612.4" y="98.4" width="187.1" height="8"/>
    <rect style="fill: none; fill-opacity:0; stroke-width: 2; stroke: #000000" x="612.4" y="98.4" width="187.1" height="8"/>
  </g>
  <g>
    <rect style="fill: #ffffff" x="612.4" y="120.15" width="164" height="28"/>
    <rect style="fill: none; fill-opacity:0; stroke-width: 2; stroke: #000000" x="612.4" y="120.15" width="164" height="28"/>
    <text font-size="16" style="fill: #000000;text-anchor:middle;font-family:sans-serif;font-style:normal;font-weight:700" x="694.4" y="139.15">MemInst</text>
    <rect style="fill: #ffffff" x="612.4" y="148.15" width="164" height="36"/>
    <rect style="fill: none; fill-opacity:0; stroke-width: 2; stroke: #000000" x="612.4" y="148.15" width="164" height="36"/>
    <text font-size="12.8" style="fill: #000000;text-anchor:start;font-family:monospace;font-style:normal;font-weight:normal" x="615.4" y="162.15">+elem: Vector&lt;char*&gt;</text>
    <text font-size="12.8" style="fill: #000000;text-anchor:start;font-family:monospace;font-style:normal;font-weight:normal" x="615.4" y="178.15">+max: uint32_t</text>
    <rect style="fill: #ffffff" x="612.4" y="184.15" width="164" height="8"/>
    <rect style="fill: none; fill-opacity:0; stroke-width: 2; stroke: #000000" x="612.4" y="184.15" width="164" height="8"/>
  </g>
  <g>
    <rect style="fill: #ffffff" x="612.4" y="205.9" width="110.1" height="28"/>
    <rect style="fill: none; fill-opacity:0; stroke-width: 2; stroke: #000000" x="612.4" y="205.9" width="110.1" height="28"/>
    <text font-size="16" style="fill: #000000;text-anchor:middle;font-family:sans-serif;font-style:normal;font-weight:700" x="667.45" y="224.9">GlobalInst</text>
    <rect style="fill: #ffffff" x="612.4" y="233.9" width="110.1" height="36"/>
    <rect style="fill: none; fill-opacity:0; stroke-width: 2; stroke: #000000" x="612.4" y="233.9" width="110.1" height="36"/>
    <text font-size="12.8" style="fill: #000000;text-anchor:start;font-family:monospace;font-style:normal;font-weight:normal" x="615.4" y="247.9">+value: Value</text>
    <text font-size="12.8" style="fill: #000000;text-anchor:start;font-family:monospace;font-style:normal;font-weight:normal" x="615.4" y="263.9">+mut: _Bool</text>
    <rect style="fill: #ffffff" x="612.4" y="269.9" width="110.1" height="8"/>
    <rect style="fill: none; fill-opacity:0; stroke-width: 2; stroke: #000000" x="612.4" y="269.9" width="110.1" height="8"/>
  </g>
  <g>
    <rect style="fill: #ffffff" x="612.4" y="291.65" width="164" height="28"/>
    <rect style="fill: none; fill-opacity:0; stroke-width: 2; stroke: #000000" x="612.4" y="291.65" width="164" height="28"/>
    <text font-size="16" style="fill: #000000;text-anchor:middle;font-family:sans-serif;font-style:normal;font-weight:700" x="694.4" y="310.65">ExportInst</text>
    <rect style="fill: #ffffff" x="612.4" y="319.65" width="164" height="52"/>
    <rect style="fill: none; fill-opacity:0; stroke-width: 2; stroke: #000000" x="612.4" y="319.65" width="164" height="52"/>
    <text font-size="12.8" style="fill: #000000;text-anchor:start;font-family:monospace;font-style:normal;font-weight:normal" x="615.4" y="333.65">+name: char*</text>
    <text font-size="12.8" style="fill: #000000;text-anchor:start;font-family:monospace;font-style:normal;font-weight:normal" x="615.4" y="349.65">+valueType: DescType</text>
    <text font-size="12.8" style="fill: #000000;text-anchor:start;font-family:monospace;font-style:normal;font-weight:normal" x="615.4" y="365.65">+valueAddr: uint32_t</text>
    <rect style="fill: #ffffff" x="612.4" y="371.65" width="164" height="8"/>
    <rect style="fill: none; fill-opacity:0; stroke-width: 2; stroke: #000000" x="612.4" y="371.65" width="164" height="8"/>
  </g>
  <g>
    <rect style="fill: #ffffff" x="94.4" y="-40.25" width="187.1" height="28"/>
    <rect style="fill: none; fill-opacity:0; stroke-width: 2; stroke: #000000" x="94.4" y="-40.25" width="187.1" height="28"/>
    <text font-size="16" style="fill: #000000;text-anchor:middle;font-family:sans-serif;font-style:normal;font-weight:700" x="187.95" y="-21.25">Stack</text>
    <rect style="fill: #ffffff" x="94.4" y="-12.25" width="187.1" height="20"/>
    <rect style="fill: none; fill-opacity:0; stroke-width: 2; stroke: #000000" x="94.4" y="-12.25" width="187.1" height="20"/>
    <text font-size="12.8" style="fill: #000000;text-anchor:start;font-family:monospace;font-style:normal;font-weight:normal" x="97.4" y="1.75">+entries: Stack&lt;Entry*&gt;</text>
    <rect style="fill: #ffffff" x="94.4" y="7.75" width="187.1" height="8"/>
    <rect style="fill: none; fill-opacity:0; stroke-width: 2; stroke: #000000" x="94.4" y="7.75" width="187.1" height="8"/>
  </g>
  <g>
    <rect style="fill: #ffffff" x="109.8" y="231.132" width="171.7" height="28"/>
    <rect style="fill: none; fill-opacity:0; stroke-width: 2; stroke: #000000" x="109.8" y="231.132" width="171.7" height="28"/>
    <text font-size="16" style="fill: #000000;text-anchor:middle;font-family:sans-serif;font-style:normal;font-weight:700" x="195.65" y="250.132">Label</text>
    <rect style="fill: #ffffff" x="109.8" y="259.132" width="171.7" height="68"/>
    <rect style="fill: none; fill-opacity:0; stroke-width: 2; stroke: #000000" x="109.8" y="259.132" width="171.7" height="68"/>
    <text font-size="12.8" style="fill: #000000;text-anchor:start;font-family:monospace;font-style:normal;font-weight:normal" x="112.8" y="273.132"> entryName</text>
    <text font-size="12.8" style="fill: #000000;text-anchor:start;font-family:monospace;font-style:normal;font-weight:normal" x="112.8" y="289.132">+funcAddr: uint32_t</text>
    <text font-size="12.8" style="fill: #000000;text-anchor:start;font-family:monospace;font-style:normal;font-weight:normal" x="112.8" y="305.132">+instrIndex: uint32_t</text>
    <text font-size="12.8" style="fill: #000000;text-anchor:start;font-family:monospace;font-style:normal;font-weight:normal" x="112.8" y="321.132">+contInstr: uint32_t</text>
  </g>
  <g>
    <rect style="fill: #ffffff" x="102.1" y="140.016" width="179.4" height="28"/>
    <rect style="fill: none; fill-opacity:0; stroke-width: 2; stroke: #000000" x="102.1" y="140.016" width="179.4" height="28"/>
    <text font-size="16" style="fill: #000000;text-anchor:middle;font-family:sans-serif;font-style:normal;font-weight:700" x="191.8" y="159.016">Frame</text>
    <rect style="fill: #ffffff" x="102.1" y="168.016" width="179.4" height="52"/>
    <rect style="fill: none; fill-opacity:0; stroke-width: 2; stroke: #000000" x="102.1" y="168.016" width="179.4" height="52"/>
    <text font-size="12.8" style="fill: #000000;text-anchor:start;font-family:monospace;font-style:normal;font-weight:normal" x="105.1" y="182.016"> entryName</text>
    <text font-size="12.8" style="fill: #000000;text-anchor:start;font-family:monospace;font-style:normal;font-weight:normal" x="105.1" y="198.016">+locals: Vector&lt;Value&gt;</text>
    <text font-size="12.8" style="fill: #000000;text-anchor:start;font-family:monospace;font-style:normal;font-weight:normal" x="105.1" y="214.016">+module: ModuleInst*</text>
  </g>
  <g>
    <rect style="fill: #ffffff" x="-117.1" y="338.248" width="379.6" height="28"/>
    <rect style="fill: none; fill-opacity:0; stroke-width: 2; stroke: #000000" x="-117.1" y="338.248" width="379.6" height="28"/>
    <text font-size="16" style="fill: #000000;text-anchor:middle;font-family:sans-serif;font-style:normal;font-weight:700" x="72.7" y="357.248">Value</text>
    <rect style="fill: #ffffff" x="-117.1" y="366.248" width="379.6" height="52"/>
    <rect style="fill: none; fill-opacity:0; stroke-width: 2; stroke: #000000" x="-117.1" y="366.248" width="379.6" height="52"/>
    <text font-size="12.8" style="fill: #000000;text-anchor:start;font-family:monospace;font-style:normal;font-weight:normal" x="-114.1" y="380.248"> entryName</text>
    <text font-size="12.8" style="fill: #000000;text-anchor:start;font-family:monospace;font-style:normal;font-weight:normal" x="-114.1" y="396.248">+type: ValueType</text>
    <text font-size="12.8" style="fill: #000000;text-anchor:start;font-family:monospace;font-style:normal;font-weight:normal" x="-114.1" y="412.248">+value: union{uint32_t, uint64_t, float, double}</text>
  </g>
  <g>
    <rect style="fill: #ffffff" x="886.856" y="24" width="133.2" height="28"/>
    <rect style="fill: none; fill-opacity:0; stroke-width: 2; stroke: #000000" x="886.856" y="24" width="133.2" height="28"/>
    <text font-size="16" style="fill: #000000;text-anchor:middle;font-family:sans-serif;font-style:normal;font-weight:700" x="953.456" y="43">InstrInst</text>
    <rect style="fill: #ffffff" x="886.856" y="52" width="133.2" height="20"/>
    <rect style="fill: none; fill-opacity:0; stroke-width: 2; stroke: #000000" x="886.856" y="52" width="133.2" height="20"/>
    <text font-size="12.8" style="fill: #000000;text-anchor:start;font-family:monospace;font-style:normal;font-weight:normal" x="889.856" y="66">+opcode: uint8_t</text>
  </g>
  <g>
    <rect style="fill: #ffffff" x="886.856" y="83.2956" width="162.1" height="28"/>
    <rect style="fill: none; fill-opacity:0; stroke-width: 2; stroke: #000000" x="886.856" y="83.2956" width="162.1" height="28"/>
    <text font-size="16" style="fill: #000000;text-anchor:middle;font-family:sans-serif;font-style:normal;font-weight:700" x="967.906" y="102.296">NumericInstrInst</text>
    <rect style="fill: #ffffff" x="886.856" y="111.296" width="162.1" height="36"/>
    <rect style="fill: none; fill-opacity:0; stroke-width: 2; stroke: #000000" x="886.856" y="111.296" width="162.1" height="36"/>
    <text font-size="12.8" style="fill: #000000;text-anchor:start;font-family:monospace;font-style:normal;font-weight:normal" x="889.856" y="125.296">+opcode: uint8_t</text>
    <text font-size="12.8" style="fill: #000000;text-anchor:start;font-family:monospace;font-style:normal;font-weight:normal" x="889.856" y="141.296">+constant: Value</text>
  </g>
  <g>
    <rect style="fill: #ffffff" x="886.856" y="158.591" width="185.75" height="28"/>
    <rect style="fill: none; fill-opacity:0; stroke-width: 2; stroke: #000000" x="886.856" y="158.591" width="185.75" height="28"/>
    <text font-size="16" style="fill: #000000;text-anchor:middle;font-family:sans-serif;font-style:normal;font-weight:700" x="979.731" y="177.591">ParametricInstrInst</text>
    <rect style="fill: #ffffff" x="886.856" y="186.591" width="185.75" height="20"/>
    <rect style="fill: none; fill-opacity:0; stroke-width: 2; stroke: #000000" x="886.856" y="186.591" width="185.75" height="20"/>
    <text font-size="12.8" style="fill: #000000;text-anchor:start;font-family:monospace;font-style:normal;font-weight:normal" x="889.856" y="200.591">+opcode: uint8_t</text>
  </g>
  <g>
    <rect style="fill: #ffffff" x="886.856" y="217.887" width="161.25" height="28"/>
    <rect style="fill: none; fill-opacity:0; stroke-width: 2; stroke: #000000" x="886.856" y="217.887" width="161.25" height="28"/>
    <text font-size="16" style="fill: #000000;text-anchor:middle;font-family:sans-serif;font-style:normal;font-weight:700" x="967.481" y="236.887">VariableInstrInst</text>
    <rect style="fill: #ffffff" x="886.856" y="245.887" width="161.25" height="36"/>
    <rect style="fill: none; fill-opacity:0; stroke-width: 2; stroke: #000000" x="886.856" y="245.887" width="161.25" height="36"/>
    <text font-size="12.8" style="fill: #000000;text-anchor:start;font-family:monospace;font-style:normal;font-weight:normal" x="889.856" y="259.887">+opcode: uint8_t</text>
    <text font-size="12.8" style="fill: #000000;text-anchor:start;font-family:monospace;font-style:normal;font-weight:normal" x="889.856" y="275.887">+index: uint32_t</text>
  </g>
  <g>
    <rect style="fill: #ffffff" x="886.856" y="293.182" width="159.65" height="28"/>
    <rect style="fill: none; fill-opacity:0; stroke-width: 2; stroke: #000000" x="886.856" y="293.182" width="159.65" height="28"/>
    <text font-size="16" style="fill: #000000;text-anchor:middle;font-family:sans-serif;font-style:normal;font-weight:700" x="966.681" y="312.182">MemoryInstrInst</text>
    <rect style="fill: #ffffff" x="886.856" y="321.182" width="159.65" height="52"/>
    <rect style="fill: none; fill-opacity:0; stroke-width: 2; stroke: #000000" x="886.856" y="321.182" width="159.65" height="52"/>
    <text font-size="12.8" style="fill: #000000;text-anchor:start;font-family:monospace;font-style:normal;font-weight:normal" x="889.856" y="335.182">+opcode: uint8_t</text>
    <text font-size="12.8" style="fill: #000000;text-anchor:start;font-family:monospace;font-style:normal;font-weight:normal" x="889.856" y="351.182">+offset: uint32_t</text>
    <text font-size="12.8" style="fill: #000000;text-anchor:start;font-family:monospace;font-style:normal;font-weight:normal" x="889.856" y="367.182">+align: uint32_t</text>
  </g>
  <g>
    <rect style="fill: #ffffff" x="886.856" y="384.478" width="210.2" height="28"/>
    <rect style="fill: none; fill-opacity:0; stroke-width: 2; stroke: #000000" x="886.856" y="384.478" width="210.2" height="28"/>
    <text font-size="16" style="fill: #000000;text-anchor:middle;font-family:sans-serif;font-style:normal;font-weight:700" x="991.956" y="403.478">ControlInstrInst</text>
    <rect style="fill: #ffffff" x="886.856" y="412.478" width="210.2" height="68"/>
    <rect style="fill: none; fill-opacity:0; stroke-width: 2; stroke: #000000" x="886.856" y="412.478" width="210.2" height="68"/>
    <text font-size="12.8" style="fill: #000000;text-anchor:start;font-family:monospace;font-style:normal;font-weight:normal" x="889.856" y="426.478">+opcode: uint8_t</text>
    <text font-size="12.8" style="fill: #000000;text-anchor:start;font-family:monospace;font-style:normal;font-weight:normal" x="889.856" y="442.478">+resulttype: ValueType</text>
    <text font-size="12.8" style="fill: #000000;text-anchor:start;font-family:monospace;font-style:normal;font-weight:normal" x="889.856" y="458.478">+contInstr: uint32_t</text>
    <text font-size="12.8" style="fill: #000000;text-anchor:start;font-family:monospace;font-style:normal;font-weight:normal" x="889.856" y="474.478">+indices: vector&lt;uint32_t&gt;</text>
  </g>
  <g>
    <rect style="fill: #ffffff" x="359.976" y="339.01" width="156.55" height="28"/>
    <rect style="fill: none; fill-opacity:0; stroke-width: 2; stroke: #000000" x="359.976" y="339.01" width="156.55" height="28"/>
    <text font-size="16" style="fill: #000000;text-anchor:middle;font-family:sans-serif;font-style:italic;font-weight:700" x="438.251" y="358.01">enum ValueType</text>
    <rect style="fill: #ffffff" x="359.976" y="367.01" width="156.55" height="84"/>
    <rect style="fill: none; fill-opacity:0; stroke-width: 2; stroke: #000000" x="359.976" y="367.01" width="156.55" height="84"/>
    <text font-size="12.8" style="fill: #000000;text-anchor:start;font-family:monospace;font-style:normal;font-weight:normal" x="362.976" y="381.01"> unspecified = 0</text>
    <text font-size="12.8" style="fill: #000000;text-anchor:start;font-family:monospace;font-style:normal;font-weight:normal" x="362.976" y="397.01"> i32 = 1</text>
    <text font-size="12.8" style="fill: #000000;text-anchor:start;font-family:monospace;font-style:normal;font-weight:normal" x="362.976" y="413.01"> i64 = 2</text>
    <text font-size="12.8" style="fill: #000000;text-anchor:start;font-family:monospace;font-style:normal;font-weight:normal" x="362.976" y="429.01"> f32 = 3</text>
    <text font-size="12.8" style="fill: #000000;text-anchor:start;font-family:monospace;font-style:normal;font-weight:normal" x="362.976" y="445.01"> f64 = 4</text>
  </g>
  <g>
    <polyline style="fill: none; fill-opacity:0; stroke-width: 2; stroke: #000000" points="587.772,-2.25 594.5,-2.25 594.5,-85.35 612.4,-85.35 "/>
    <polygon style="fill: #ffffff" points="562.6,-2.25 576.6,-7.05 590.6,-2.25 576.6,2.55 "/>
    <polygon style="fill: none; fill-opacity:0; stroke-width: 2; stroke: #000000" points="562.6,-2.25 576.6,-7.05 590.6,-2.25 576.6,2.55 "/>
  </g>
  <g>
    <polyline style="fill: none; fill-opacity:0; stroke-width: 2; stroke: #000000" points="587.772,13.75 594.5,13.75 594.5,48.4 612.4,48.4 "/>
    <polygon style="fill: #ffffff" points="562.6,13.75 576.6,8.95 590.6,13.75 576.6,18.55 "/>
    <polygon style="fill: none; fill-opacity:0; stroke-width: 2; stroke: #000000" points="562.6,13.75 576.6,8.95 590.6,13.75 576.6,18.55 "/>
  </g>
  <g>
    <polyline style="fill: none; fill-opacity:0; stroke-width: 2; stroke: #000000" points="587.772,29.75 594.5,29.75 594.5,134.15 612.4,134.15 "/>
    <polygon style="fill: #ffffff" points="562.6,29.75 576.6,24.95 590.6,29.75 576.6,34.55 "/>
    <polygon style="fill: none; fill-opacity:0; stroke-width: 2; stroke: #000000" points="562.6,29.75 576.6,24.95 590.6,29.75 576.6,34.55 "/>
  </g>
  <g>
    <polyline style="fill: none; fill-opacity:0; stroke-width: 2; stroke: #000000" points="587.772,45.75 594.5,45.75 594.5,219.9 612.4,219.9 "/>
    <polygon style="fill: #ffffff" points="562.6,45.75 576.6,40.95 590.6,45.75 576.6,50.55 "/>
    <polygon style="fill: none; fill-opacity:0; stroke-width: 2; stroke: #000000" points="562.6,45.75 576.6,40.95 590.6,45.75 576.6,50.55 "/>
  </g>
  <g>
    <polyline style="fill: none; fill-opacity:0; stroke-width: 2; stroke: #000000" points="583.922,305.75 592.575,305.75 592.575,305.65 612.4,305.65 "/>
    <polygon style="fill: #ffffff" points="558.75,305.75 572.75,300.95 586.75,305.75 572.75,310.55 "/>
    <polygon style="fill: none; fill-opacity:0; stroke-width: 2; stroke: #000000" points="558.75,305.75 572.75,300.95 586.75,305.75 572.75,310.55 "/>
  </g>
  <g>
    <polyline style="fill: none; fill-opacity:0; stroke-width: 2; stroke: #000000" points="886.272,-13.35 953.456,-13.35 953.456,24 "/>
    <polygon style="fill: #ffffff" points="861.1,-13.35 875.1,-18.15 889.1,-13.35 875.1,-8.55 "/>
    <polygon style="fill: none; fill-opacity:0; stroke-width: 2; stroke: #000000" points="861.1,-13.35 875.1,-18.15 889.1,-13.35 875.1,-8.55 "/>
  </g>
  <g>
    <polyline style="fill: none; fill-opacity:0; stroke-width: 2; stroke: #000000" points="868.62,38 849.856,38 849.856,97.2956 886.856,97.2956 "/>
    <polygon style="fill: #ffffff" points="868.62,46 884.62,38 868.62,30 "/>
    <polygon style="fill: none; fill-opacity:0; stroke-width: 2; stroke: #000000" points="868.62,46 884.62,38 868.62,30 "/>
  </g>
  <g>
    <polyline style="fill: none; fill-opacity:0; stroke-width: 2; stroke: #000000" points="868.62,38 849.856,38 849.856,172.591 886.856,172.591 "/>
    <polygon style="fill: #ffffff" points="868.62,46 884.62,38 868.62,30 "/>
    <polygon style="fill: none; fill-opacity:0; stroke-width: 2; stroke: #000000" points="868.62,46 884.62,38 868.62,30 "/>
  </g>
  <g>
    <polyline style="fill: none; fill-opacity:0; stroke-width: 2; stroke: #000000" points="868.62,38 849.856,38 849.856,231.887 886.856,231.887 "/>
    <polygon style="fill: #ffffff" points="868.62,46 884.62,38 868.62,30 "/>
    <polygon style="fill: none; fill-opacity:0; stroke-width: 2; stroke: #000000" points="868.62,46 884.62,38 868.62,30 "/>
  </g>
  <g>
    <polyline style="fill: none; fill-opacity:0; stroke-width: 2; stroke: #000000" points="868.62,38 849.856,38 849.856,307.182 886.856,307.182 "/>
    <polygon style="fill: #ffffff" points="868.62,46 884.62,38 868.62,30 "/>
    <polygon style="fill: none; fill-opacity:0; stroke-width: 2; stroke: #000000" points="868.62,46 884.62,38 868.62,30 "/>
  </g>
  <g>
    <polyline style="fill: none; fill-opacity:0; stroke-width: 2; stroke: #000000" points="868.62,38 849.856,38 849.856,398.478 886.856,398.478 "/>
    <polygon style="fill: #ffffff" points="868.62,46 884.62,38 868.62,30 "/>
    <polygon style="fill: none; fill-opacity:0; stroke-width: 2; stroke: #000000" points="868.62,46 884.62,38 868.62,30 "/>
  </g>
  <g>
    <polyline style="fill: none; fill-opacity:0; stroke-width: 2; stroke: #000000" points="266.972,392.248 320.738,392.248 320.738,353.01 355.504,353.01 "/>
    <polyline style="fill: none; fill-opacity:0; stroke-width: 2; stroke: #000000" points="280.736,384.248 264.736,392.248 280.736,400.248 "/>
    <polyline style="fill: none; fill-opacity:0; stroke-width: 2; stroke: #000000" points="341.74,361.01 357.74,353.01 341.74,345.01 "/>
    <polygon style="fill: #000000" points="324.738,372.629 324.738,364.629 332.738,368.629 "/>
    <text font-size="12.7998" style="fill: #000000;text-anchor:start;font-family:monospace;font-style:normal;font-weight:normal" x="282.5" y="389.248">1</text>
    <text font-size="12.7998" style="fill: #000000;text-anchor:end;font-family:monospace;font-style:normal;font-weight:normal" x="339.976" y="350.01">1</text>
  </g>
  <g>
    <rect style="fill: #ffffff" x="109.8" y="80.9" width="171.7" height="28"/>
    <rect style="fill: none; fill-opacity:0; stroke-width: 2; stroke: #000000" x="109.8" y="80.9" width="171.7" height="28"/>
    <text font-size="16" style="fill: #000000;text-anchor:middle;font-family:sans-serif;font-style:normal;font-weight:700" x="195.65" y="99.9">Entry</text>
    <rect style="fill: #ffffff" x="109.8" y="108.9" width="171.7" height="20"/>
    <rect style="fill: none; fill-opacity:0; stroke-width: 2; stroke: #000000" x="109.8" y="108.9" width="171.7" height="20"/>
    <text font-size="12.8" style="fill: #000000;text-anchor:start;font-family:monospace;font-style:normal;font-weight:normal" x="112.8" y="122.9">+entryName: EntryType</text>
  </g>
  <g>
    <polyline style="fill: none; fill-opacity:0; stroke-width: 2; stroke: #000000" points="91.5639,94.9 72.8,94.9 72.8,154.016 102.1,154.016 "/>
    <polygon style="fill: #ffffff" points="91.5639,102.9 107.564,94.9 91.5639,86.9 "/>
    <polygon style="fill: none; fill-opacity:0; stroke-width: 2; stroke: #000000" points="91.5639,102.9 107.564,94.9 91.5639,86.9 "/>
  </g>
  <g>
    <polyline style="fill: none; fill-opacity:0; stroke-width: 2; stroke: #000000" points="91.5639,94.9 72.8,94.9 72.8,245.132 109.8,245.132 "/>
    <polygon style="fill: #ffffff" points="91.5639,102.9 107.564,94.9 91.5639,86.9 "/>
    <polygon style="fill: none; fill-opacity:0; stroke-width: 2; stroke: #000000" points="91.5639,102.9 107.564,94.9 91.5639,86.9 "/>
  </g>
  <g>
    <polyline style="fill: none; fill-opacity:0; stroke-width: 2; stroke: #000000" points="91.5639,94.9 72.7,94.9 72.7,338.248 "/>
    <polygon style="fill: #ffffff" points="91.5639,102.9 107.564,94.9 91.5639,86.9 "/>
    <polygon style="fill: none; fill-opacity:0; stroke-width: 2; stroke: #000000" points="91.5639,102.9 107.564,94.9 91.5639,86.9 "/>
  </g>
  <g>
    <polyline style="fill: none; fill-opacity:0; stroke-width: 2; stroke: #000000" points="69.2284,-2.25 59.4,-2.25 59.4,38.825 195.65,38.825 195.65,80.9 "/>
    <polygon style="fill: #ffffff" points="94.4,-2.25 80.4,2.55 66.4,-2.25 80.4,-7.05 "/>
    <polygon style="fill: none; fill-opacity:0; stroke-width: 2; stroke: #000000" points="94.4,-2.25 80.4,2.55 66.4,-2.25 80.4,-7.05 "/>
  </g>
</svg>
